HIERARCHY
ROOT hip
{
  OFFSET 0 0 0
  CHANNELS 6 Xposition Yposition Zposition Zrotation Yrotation Xrotation
  JOINT abdomen
  {
    OFFSET 0 20.6881 -0.73152
    CHANNELS 3 Zrotation Xrotation Yrotation
    JOINT chest
    {
      OFFSET 0 11.7043 -0.48768
      CHANNELS 3 Zrotation Xrotation Yrotation
      JOINT neck
      {
        OFFSET 0 22.1894 -2.19456
        CHANNELS 3 Zrotation Xrotation Yrotation
        JOINT head
        {
          OFFSET -0.24384 7.07133 1.2192
          CHANNELS 3 Zrotation Xrotation Yrotation
          JOINT leftEye
          {
            OFFSET 4.14528 8.04674 8.04672
            CHANNELS 3 Zrotation Xrotation Yrotation
            End Site
            {
              OFFSET 1 0 0
            }
          }
          JOINT rightEye
          {
            OFFSET -3.6576 8.04674 8.04672
            CHANNELS 3 Zrotation Xrotation Yrotation
            End Site
            {
              OFFSET 1 0 0
            }
          }
        }
      }
      JOINT rCollar
      {
        OFFSET -2.68224 19.2634 -4.8768
        CHANNELS 3 Zrotation Xrotation Yrotation
        JOINT rShldr
        {
          OFFSET -8.77824 -1.95073 1.46304
          CHANNELS 3 Zrotation Xrotation Yrotation
          JOINT rForeArm
          {
            OFFSET -28.1742 -1.7115 0.48768
            CHANNELS 3 Zrotation Xrotation Yrotation
            JOINT rHand
            {
              OFFSET -22.5879 0.773209 7.07136
              CHANNELS 3 Zrotation Xrotation Yrotation
              JOINT rThumb1
              {
                OFFSET -1.2192 -0.487915 3.41376
                CHANNELS 3 Zrotation Xrotation Yrotation
                JOINT rThumb2
                {
                  OFFSET -3.37035 -0.52449 3.41376
                  CHANNELS 3 Zrotation Xrotation Yrotation
                  End Site
                  {
                    OFFSET -1.78271 -1.18214 1.43049
                  }
                }
              }
              JOINT rIndex1
              {
                OFFSET -7.75947 0.938293 5.60832
                CHANNELS 3 Zrotation Xrotation Yrotation
                JOINT rIndex2
                {
                  OFFSET -2.54057 -0.884171 1.56538
                  CHANNELS 3 Zrotation Xrotation Yrotation
                  End Site
                  {
                    OFFSET -1.62519 -0.234802 1.16502
                  }
                }
              }
              JOINT rMid1
              {
                OFFSET -8.24714 1.18213 3.41376
                CHANNELS 3 Zrotation Xrotation Yrotation
                JOINT rMid2
                {
                  OFFSET -3.10165 -0.590103 1.0647
                  CHANNELS 3 Zrotation Xrotation Yrotation
                  End Site
                  {
                    OFFSET -2.48547 -0.328903 0.83742
                  }
                }
              }
              JOINT rRing1
              {
                OFFSET -8.82822 0.546677 1.51678
                CHANNELS 3 Zrotation Xrotation Yrotation
                JOINT rRing2
                {
                  OFFSET -2.60934 -0.819778 -0.0198488
                  CHANNELS 3 Zrotation Xrotation Yrotation
                  End Site
                  {
                    OFFSET -2.33842 -0.294052 0.168128
                  }
                }
              }
              JOINT rPinky1
              {
                OFFSET -8.27202 -0.0477905 -0.4584
                CHANNELS 3 Zrotation Xrotation Yrotation
                JOINT rPinky2
                {
                  OFFSET -1.82734 -0.647385 -0.700984
                  CHANNELS 3 Zrotation Xrotation Yrotation
                  End Site
                  {
                    OFFSET -1.69225 -0.51767 -0.607171
                  }
                }
              }
            }
          }
        }
      }
      JOINT lCollar
      {
        OFFSET 2.68224 19.2634 -4.8768
        CHANNELS 3 Zrotation Xrotation Yrotation
        JOINT lShldr
        {
          OFFSET 8.77824 -1.95073 1.46304
          CHANNELS 3 Zrotation Xrotation Yrotation
          JOINT lForeArm
          {
            OFFSET 28.1742 -1.7115 0.48768
            CHANNELS 3 Zrotation Xrotation Yrotation
            JOINT lHand
            {
              OFFSET 22.5879 0.773209 7.07136
              CHANNELS 3 Zrotation Xrotation Yrotation
              JOINT lThumb1
              {
                OFFSET 1.2192 -0.487915 3.41376
                CHANNELS 3 Zrotation Xrotation Yrotation
                JOINT lThumb2
                {
                  OFFSET 3.37035 -0.52449 3.41376
                  CHANNELS 3 Zrotation Xrotation Yrotation
                  End Site
                  {
                    OFFSET 1.78271 -1.18214 1.43049
                  }
                }
              }
              JOINT lIndex1
              {
                OFFSET 7.75947 0.938293 5.60832
                CHANNELS 3 Zrotation Xrotation Yrotation
                JOINT lIndex2
                {
                  OFFSET 2.54057 -0.884171 1.56538
                  CHANNELS 3 Zrotation Xrotation Yrotation
                  End Site
                  {
                    OFFSET 1.62519 -0.234802 1.16502
                  }
                }
              }
              JOINT lMid1
              {
                OFFSET 8.24714 1.18213 3.41376
                CHANNELS 3 Zrotation Xrotation Yrotation
                JOINT lMid2
                {
                  OFFSET 3.10165 -0.590103 1.0647
                  CHANNELS 3 Zrotation Xrotation Yrotation
                  End Site
                  {
                    OFFSET 2.48547 -0.328903 0.83742
                  }
                }
              }
              JOINT lRing1
              {
                OFFSET 8.82822 0.546677 1.51678
                CHANNELS 3 Zrotation Xrotation Yrotation
                JOINT lRing2
                {
                  OFFSET 2.60934 -0.819778 -0.0198488
                  CHANNELS 3 Zrotation Xrotation Yrotation
                  End Site
                  {
                    OFFSET 2.33842 -0.294052 0.168128
                  }
                }
              }
              JOINT lPinky1
              {
                OFFSET 8.27202 -0.0477905 -0.4584
                CHANNELS 3 Zrotation Xrotation Yrotation
                JOINT lPinky2
                {
                  OFFSET 1.82734 -0.647385 -0.700984
                  CHANNELS 3 Zrotation Xrotation Yrotation
                  End Site
                  {
                    OFFSET 1.69225 -0.51767 -0.607171
                  }
                }
              }
            }
          }
        }
      }
    }
  }
  JOINT rButtock
  {
    OFFSET -8.77824 4.35084 1.2192
    CHANNELS 3 Zrotation Xrotation Yrotation
    JOINT rThigh
    {
      OFFSET 0 -1.70687 -2.19456
      CHANNELS 3 Zrotation Xrotation Yrotation
      JOINT rShin
      {
        OFFSET 0 -36.8199 0.73152
        CHANNELS 3 Zrotation Xrotation Yrotation
        JOINT rFoot
        {
          OFFSET 0.73152 -45.1104 -5.12064
          CHANNELS 3 Zrotation Xrotation Yrotation
          End Site
          {
            OFFSET -1.1221 -3.69964 12.103
          }
        }
      }
    }
  }
  JOINT lButtock
  {
    OFFSET 8.77824 4.35084 1.2192
    CHANNELS 3 Zrotation Xrotation Yrotation
    JOINT lThigh
    {
      OFFSET 0 -1.70687 -2.19456
      CHANNELS 3 Zrotation Xrotation Yrotation
      JOINT lShin
      {
        OFFSET 0 -36.8199 0.73152
        CHANNELS 3 Zrotation Xrotation Yrotation
        JOINT lFoot
        {
          OFFSET -0.73152 -45.1104 -5.12064
          CHANNELS 3 Zrotation Xrotation Yrotation
          End Site
          {
            OFFSET 1.1221 -3.69964 12.103
          }
        }
      }
    }
  }
}
MOTION
Frames:	5
Frame Time:	0.03333
0.0 0.0 0.0 0.0 0.0 0.0 0.0 0.0 0.0 0.0 0.0 0.0 0.0 0.0 0.0 0.0 0.0 0.0 0.0 0.0 0.0 0.0 0.0 0.0 0.0 0.0 0.0 0.0 0.0 0.0 0.0 0.0 0.0 0.0 0.0 0.0 0.0 0.0 0.0 0.0 0.0 0.0 0.0 0.0 0.0 0.0 0.0 0.0 0.0 0.0 0.0 0.0 0.0 0.0 0.0 0.0 0.0 0.0 0.0 0.0 0.0 0.0 0.0 0.0 0.0 0.0 0.0 0.0 0.0 0.0 0.0 0.0 0.0 0.0 0.0 0.0 0.0 0.0 0.0 0.0 0.0 0.0 0.0 0.0 0.0 0.0 0.0 0.0 0.0 0.0 0.0 0.0 0.0 0.0 0.0 0.0 0.0 0.0 0.0 0.0 0.0 0.0 0.0 0.0 0.0 0.0 0.0 0.0 0.0 0.0 0.0 0.0 0.0 0.0 0.0 0.0 0.0 0.0 0.0 0.0 0.0 0.0 0.0 0.0 0.0 0.0 0.0 0.0 0.0 0.0 0.0 0.0
-0.0615 79.3684 -0.041800000000000004 -3.920019 -46.013064 6.631418 0.315955 1.875948 -74.764778 5.891916 -1.990441 80.379074 -2.643215 12.523571 12.410217 -1.798379 -22.974113 -24.324422 0.001302 0.0 0.000188 -0.005174 0.0 -0.003175 -85.537492 68.182975 88.688953 73.050889 -16.183884 78.097806 -102.437464 54.128216 58.86976 114.875501 -67.511198 98.775662 -103.199756 36.330999 60.11115 -125.182664 -14.654688 72.670845 -162.920944 -37.928674 122.63001 145.867235 -67.282732 85.745626 68.983593 -80.154147 40.57866 10.115066 -21.572468 -1.363902 -145.119777 0.185733 -179.185902 11.134484 63.10774 -0.725309 -145.173856 12.067476 -141.823036 11.338291 26.242884 4.024755 40.034439 -86.056467 61.565598 -110.750829 31.620622 91.107912 -1.621612 -6.262873 -24.383257 8.262386 50.34717 -6.129476 -1.842212 -1.827256 0.253513 123.629322 -14.304289 -111.182332 -11.981716 -21.34679 5.06085 175.488505 -35.034051 -106.983993 -173.126473 -66.298051 -137.61775 163.731985 -5.581626 -143.152837 69.014477 72.940354 -86.720031 -5.159202 26.571198 0.83648 82.835944 -50.989735 81.238509 -1.277261 -5.394677 2.760544 -0.003569 0.000532 -0.001785 -10.28224 -29.689574 -154.918736 -35.584083 -50.173992 32.629082 28.943279 35.229552 89.989551 0.000456 -0.000285 -0.000587 12.856986 -29.654619 77.863012 52.686605 9.367385 -19.705355 -105.95733 34.6397 2.78661
-0.0916 79.3149 -0.0576 -3.910588 -45.948877 6.660888 -2.041958 3.61503 -0.0 1.965853 -7.961473 5.626284 -13.565327 24.172098 -86.55743 35.412586 11.97993 72.842519 -0.001621 0.0 -0.000838 -0.000968 -0.0 0.00263 -9.650536 34.836498 11.198033 55.388198 25.29699 38.108288 13.70599 -51.493275 38.118313 -10.289884 33.583742 2.231085 -12.926704 12.051333 3.310545 79.709918 -73.223059 10.934332 -162.636181 -37.465504 122.649791 -174.329021 -41.990851 115.454509 23.903181 -61.333939 1.399526 -86.037518 64.136825 77.709459 -0.021518 -1.807372 -0.568679 0.382887 -79.139295 -20.353125 -145.176064 12.067543 -141.822042 -147.335365 11.049746 -141.541725 -0.11818 -0.714122 0.157171 93.560356 -16.80973 -174.174925 106.108294 -48.839434 129.545492 -17.954919 -25.817618 -14.704562 5.433253 5.265109 -1.077994 66.19591 25.558481 -61.923558 28.901019 31.61655 -21.337259 34.994487 41.262258 -22.457671 160.67402 -6.667775 -143.24491 155.873745 15.494055 -139.522917 145.118785 0.267896 179.212169 -11.044301 11.301552 7.652165 139.225787 -4.395869 136.38845 9.270128 -23.389762 12.060134 -0.000612 -0.001182 0.000306 -10.34927 -29.799443 -154.632333 -36.126071 -50.041918 32.27098 175.94283 12.73479 -86.383063 179.87943 75.749172 0.092929 -162.935417 44.795736 -0.0 10.420171 59.607791 -163.283195 129.031675 -12.341417 -179.632881
-0.1497 79.245 -0.0798 -3.89184 -45.87905 6.714952 -2.07591 3.539555 -0.0 1.989181 -7.984739 5.578303 -11.330967 28.900595 -116.964316 31.23749 27.528777 99.49118 -0.00073 0.0 -0.001677 -0.00073 0.0 -0.001677 -0.273073 1.606789 0.36118 72.446499 26.531043 2.086982 2.679105 -23.822677 30.0672 -6.976254 24.823549 1.056919 93.028905 -51.084411 40.500251 -26.208113 -11.186398 -16.780173 -1.95529 3.10602 1.140224 -99.180988 44.316082 77.686892 170.913749 -68.193942 135.948516 -34.823382 54.964074 29.305367 -145.119566 0.267542 -179.212934 -149.424192 -38.763746 -171.997168 -74.131853 -51.747854 -72.618177 -17.930494 -35.78711 -20.189922 129.782674 55.044989 -133.631696 -143.443151 6.769353 -117.001725 157.762978 -6.001132 -127.128328 -95.684317 -63.059291 -87.496792 14.735836 13.585443 -3.967079 129.514743 -29.56075 -108.367854 124.521861 22.158513 -104.963954 176.183707 -34.007393 -115.602554 0.057971 0.167957 -0.030625 -3.094752 0.407664 -0.028804 69.296454 72.947109 -87.016633 -4.104571 38.422951 -1.222169 0.529868 -1.363906 0.491364 153.978075 35.842143 148.240373 0.0 -0.00056 0.000695 -10.387257 -29.936887 -154.363912 -32.071157 -46.956333 73.197612 31.618872 3.028243 60.161751 -0.002503 -0.00056 -0.001252 14.931584 -29.238142 -32.745885 -52.223706 39.660529 -113.435867 110.689963 12.339723 160.256743
-0.20339999999999997 79.187 -0.10020000000000001 -3.950709 -45.891592 6.749083 0.340133 0.843123 -98.704061 5.242668 0.429185 104.153147 7.837063 21.485776 93.985151 -31.137754 9.234935 -103.874643 0.001713 -0.0 -0.003305 0.002545 0.0 0.001134 -155.548619 -3.80432 161.899747 126.87146 -26.682863 171.505245 -103.118544 57.259817 55.943 126.496598 -64.660911 109.687997 -17.201489 15.600488 4.929527 -1.112309 1.916612 10.860785 -8.571627 12.509062 5.44935 -168.209247 -20.875292 109.636854 23.906909 -61.333255 1.403385 -3.940836 18.505416 3.724966 -0.000449 -0.061047 -0.0178 9.708812 -62.549482 -9.187791 -152.504621 38.522756 -147.798803 -148.802569 13.965752 -142.327267 -3.19251 -25.838843 5.074335 -89.009933 36.967131 21.428608 10.876844 -3.772125 -21.095644 1.592722 31.728759 -4.813762 166.630939 -4.304807 -89.772627 38.887973 -22.793343 -8.83732 1.160505 1.861212 -0.669344 -54.924787 -48.789896 -11.963292 0.219725 0.638443 -0.122709 7.30244 26.198147 -6.024414 77.104178 72.918256 -95.200347 156.402383 -44.820107 176.273079 -25.912737 79.094195 -10.836195 25.785805 -40.717589 25.760541 -179.999951 75.748419 -5e-05 166.076586 46.63541 10.026008 6.266179 48.070412 12.883102 59.851816 -38.989922 -2.35122 -0.000885 0.000338 0.001137 13.815378 -29.248568 26.715744 34.666331 49.327165 60.93428 -162.964574 -43.547598 105.806211
